<svg id="Ebene_2" xmlns="http://www.w3.org/2000/svg" viewBox="0 0 1092.54 806.4"><defs><linearGradient id="Degradado_sin_nombre_24" x1="341.53" y1="318.51" x2="384.73" y2="575.55" gradientUnits="userSpaceOnUse"><stop offset="0" stop-color="#e1ebf9"/><stop offset="1" stop-color="#5078da"/></linearGradient><linearGradient id="Degradado_sin_nombre_25" x1="567" y1="233.3" x2="625.7" y2="526.79" gradientUnits="userSpaceOnUse"><stop offset="0" stop-color="#e1ebf9"/><stop offset=".32" stop-color="#a8bdec"/><stop offset=".63" stop-color="#7898e2"/><stop offset=".87" stop-color="#5a80dc"/><stop offset="1" stop-color="#5078da"/></linearGradient><linearGradient id="Degradado_sin_nombre_28" x1="209.43" y1="583.36" x2="284.31" y2="321.28" gradientTransform="rotate(-14.27 247.662 446.716)" gradientUnits="userSpaceOnUse"><stop offset="0" stop-color="#fc10a3"/><stop offset=".5" stop-color="#a479d3"/><stop offset="1" stop-color="#76bae7"/></linearGradient><linearGradient id="Degradado_sin_nombre_27" x1="542.87" y1="199.62" x2="456.47" y2="576.9" gradientTransform="rotate(-13.99 498.706 392.975)" gradientUnits="userSpaceOnUse"><stop offset="0" stop-color="#fa12a6"/><stop offset=".5" stop-color="#a479d3"/><stop offset="1" stop-color="#76bae7"/></linearGradient><linearGradient id="Degradado_sin_nombre_26" x1="813.31" y1="-2.64" x2="675.07" y2="578.4" gradientUnits="userSpaceOnUse"><stop offset=".28" stop-color="#f815a3"/><stop offset=".66" stop-color="#a479d3"/><stop offset="1" stop-color="#76bae7"/></linearGradient><style>.cls-2{fill:#436bdd}.cls-4{fill:#f539b1}</style></defs><g id="Capa_1"><path d="m470.65 533.16-82.92 50.61-129.98-210.12 84.07-50.75c.26-.16.59-.07.75.18l128.09 210.08Z" style="fill:url(#Degradado_sin_nombre_24)"/><path d="m672.15 441.88-58.88 144.55L508.76 259.2l101.03-55.9c.29-.07.59.1.66.39l61.7 238.19Z" style="fill:url(#Degradado_sin_nombre_25)"/><path d="M308.79 303.1v225.8c0 33.78-27.42 61.2-61.2 61.2s-61.2-27.42-61.2-61.2V425.49c0-67.55 54.84-122.39 122.39-122.39Z" transform="rotate(14.27 247.653 446.744)" style="fill:url(#Degradado_sin_nombre_28)"/><path d="M560.05 180.93v301.1c0 67.82-55.06 122.89-122.89 122.89v-301.1c0-67.82 55.06-122.89 122.89-122.89Z" transform="rotate(13.99 498.68 392.997)" style="fill:url(#Degradado_sin_nombre_27)"/><path d="M879.56 223.92S819.8 122.4 817.64 0c0 0-70.56 110.88-164.16 164.16 0 0 23.84 12.02 56.68 1.21l-96.89 421.06c66.42 15.28 132.65-26.17 147.93-92.58l69.22-300.8-1.81 7.87s29.35 19.88 50.95 23Z" style="fill:url(#Degradado_sin_nombre_26)"/><path class="cls-2" d="M135.58 648.48H12.46C5.58 648.48 0 654.06 0 660.94v12.28c0 6.88 5.58 12.46 12.46 12.46h37.3v107.76c0 7.16 5.8 12.96 12.96 12.96h19.8c7.16 0 12.96-5.8 12.96-12.96V685.68h40.1c6.88 0 12.46-5.58 12.46-12.46v-12.28c0-6.88-5.58-12.46-12.46-12.46Z"/><path class="cls-4" d="M1080.08 648.48H956.96c-6.88 0-12.46 5.58-12.46 12.46v12.28c0 6.88 5.58 12.46 12.46 12.46h37.3v107.76c0 7.16 5.8 12.96 12.96 12.96h19.8c7.16 0 12.96-5.8 12.96-12.96V685.68h40.1c6.88 0 12.46-5.58 12.46-12.46v-12.28c0-6.88-5.58-12.46-12.46-12.46Z"/><path class="cls-2" d="M548 685.68h45.72v107.76c0 7.15-5.81 12.96-12.96 12.96h-19.8c-7.15 0-12.96-5.81-12.96-12.96V685.68ZM255.73 648.48H176.9s-1.08 0-2.22.24c-1.05.21-2.16.65-2.16.65-4.02 1.71-6.84 5.69-6.84 10.33v133.74c0 7.16 5.8 12.96 12.96 12.96h19.8c7.16 0 12.96-5.8 12.96-12.96v-42.48h41.4l24.55 46.1c3.06 5.75 9.04 9.34 15.56 9.34h25.42c6.62 0 11.02-6.83 8.29-12.86-6.35-14.07-18.16-37.2-34.58-56.62 0 0 9.64-4.09 17.76-12.46 9.74-10.03 11.52-22.46 8.02-37.96 0 0-6.34-33.46-62.09-38.02Zm15.97 51.6c0 9.01-7.31 16.32-16.32 16.32H211.4v-32.64h43.98c9.01 0 16.32 7.31 16.32 16.32ZM510.77 792.25l-60.39-136.42a16.181 16.181 0 0 0-14.79-9.63h-27.73c-6.49 0-12.35 3.88-14.89 9.85l-57.9 136.34c-2.82 6.64 2.05 14.01 9.27 14.01h17.91c8.57 0 16.37-4.93 20.05-12.66l8.02-16.86h64.44l5.21 14.72a22.201 22.201 0 0 0 20.93 14.8h20.67c7.28 0 12.16-7.49 9.21-14.15ZM404 738.36l18.95-44.64L440 738.36h-36Z"/><path class="cls-2" d="M613.7 686.68c4.87 0 8.82-3.95 8.82-8.82v-21.84c0-4.87-3.95-8.82-8.82-8.82h-82.8c-4.87 0-8.82 3.95-8.82 8.82v21.84c0 4.87 3.95 8.82 8.82 8.82H548v80.24h-17.1c-4.87 0-8.82 3.95-8.82 8.82v21.84c0 4.87 3.95 8.82 8.82 8.82h82.8c4.87 0 8.82-3.95 8.82-8.82v-21.84c0-4.87-3.95-8.82-8.82-8.82h-19.98v-80.24h19.98Z"/><path class="cls-4" d="M923.96 686.68c4.87 0 8.82-3.95 8.82-8.82v-21.84c0-4.87-3.95-8.82-8.82-8.82h-82.8c-4.87 0-8.82 3.95-8.82 8.82v21.84c0 4.87 3.95 8.82 8.82 8.82h17.1v80.24h-17.1c-4.87 0-8.82 3.95-8.82 8.82v21.84c0 4.87 3.95 8.82 8.82 8.82h82.8c4.87 0 8.82-3.95 8.82-8.82v-21.84c0-4.87-3.95-8.82-8.82-8.82h-19.98v-80.24h19.98Z"/><path class="cls-2" d="M789.34 647.2h-23.68c-6.09 0-11.02 4.93-11.02 11.02v82.01l-44.28-69.19c-10.08-18.36-20.16-23.84-20.16-23.84h-37.58c-4.5 0-8.14 3.64-8.14 8.14v138.1c0 7.16 5.8 12.96 12.96 12.96h19.8c7.16 0 12.96-5.8 12.96-12.96v-81.95l64.44 94.91h32.76c7.16 0 12.96-5.8 12.96-12.96V658.22c0-6.09-4.93-11.02-11.02-11.02Z"/></g></svg>